<svg width="135" height="13" viewBox="0 0 135 13" fill="none" xmlns="http://www.w3.org/2000/svg">
<path d="M12.8321 0.432687V12.0007H10.9361V4.52869C10.9361 4.23002 10.9521 3.90735 10.9841 3.56069L7.48809 10.1287C7.32275 10.4434 7.06942 10.6007 6.72809 10.6007H6.42409C6.08275 10.6007 5.82942 10.4434 5.66409 10.1287L2.12809 3.53669C2.14409 3.71269 2.15742 3.88602 2.16809 4.05669C2.17875 4.22735 2.18409 4.38469 2.18409 4.52869V12.0007H0.288086V0.432687H1.91209C2.00809 0.432687 2.09075 0.435354 2.16009 0.440687C2.22942 0.44602 2.29075 0.459353 2.34409 0.480687C2.40275 0.50202 2.45342 0.536687 2.49609 0.584687C2.54409 0.632687 2.58942 0.696687 2.63209 0.776687L6.09609 7.20069C6.18675 7.37135 6.26942 7.54735 6.34409 7.72869C6.42409 7.91002 6.50142 8.09669 6.57609 8.28869C6.65075 8.09135 6.72809 7.90202 6.80809 7.72069C6.88809 7.53402 6.97342 7.35535 7.06409 7.18469L10.4801 0.776687C10.5228 0.696687 10.5681 0.632687 10.6161 0.584687C10.6641 0.536687 10.7148 0.50202 10.7681 0.480687C10.8268 0.459353 10.8908 0.44602 10.9601 0.440687C11.0294 0.435354 11.1121 0.432687 11.2081 0.432687H12.8321Z" fill="black"/>
<path d="M29.5251 7.63269L28.1171 3.78469C28.0478 3.61402 27.9758 3.41135 27.9011 3.17669C27.8264 2.94202 27.7518 2.68869 27.6771 2.41669C27.6078 2.68869 27.5358 2.94469 27.4611 3.18469C27.3864 3.41935 27.3144 3.62469 27.2451 3.80069L25.8451 7.63269H29.5251ZM33.3251 12.0007H31.6611C31.4744 12.0007 31.3224 11.9554 31.2051 11.8647C31.0878 11.7687 30.9998 11.6514 30.9411 11.5127L30.0771 9.15269H25.2851L24.4211 11.5127C24.3784 11.6354 24.2958 11.7474 24.1731 11.8487C24.0504 11.95 23.8984 12.0007 23.7171 12.0007H22.0371L26.5891 0.432687H28.7811L33.3251 12.0007Z" fill="black"/>
<path d="M52.2745 0.432687V12.0007H51.1705C50.9998 12.0007 50.8558 11.974 50.7385 11.9207C50.6265 11.862 50.5171 11.766 50.4105 11.6327L44.3705 3.92069C44.4025 4.27269 44.4185 4.59802 44.4185 4.89669V12.0007H42.5225V0.432687H43.6505C43.7411 0.432687 43.8185 0.43802 43.8825 0.448687C43.9518 0.45402 44.0105 0.47002 44.0585 0.496687C44.1118 0.518021 44.1625 0.552687 44.2105 0.600687C44.2585 0.643354 44.3118 0.70202 44.3705 0.776687L50.4345 8.52069C50.4185 8.33402 50.4051 8.15002 50.3945 7.96869C50.3838 7.78735 50.3785 7.61935 50.3785 7.46469V0.432687H52.2745Z" fill="black"/>
<path d="M65.0106 12.0007H62.8506V0.432687H65.0106V12.0007Z" fill="black"/>
<path d="M77.7606 2.14469V5.56869H82.0966V7.28869H77.7606V12.0007H75.6006V0.432687H82.8966V2.14469H77.7606Z" fill="black"/>
<path d="M94.8231 2.14469V5.35269H98.8711V7.00869H94.8231V10.2807H99.9591V12.0007H92.6631V0.432687H99.9591V2.14469H94.8231Z" fill="black"/>
<path d="M116.026 2.53669C115.962 2.64869 115.893 2.73135 115.818 2.78469C115.749 2.83269 115.661 2.85669 115.554 2.85669C115.442 2.85669 115.32 2.81669 115.186 2.73669C115.058 2.65135 114.904 2.55802 114.722 2.45669C114.541 2.35535 114.328 2.26469 114.082 2.18469C113.842 2.09935 113.557 2.05669 113.226 2.05669C112.928 2.05669 112.666 2.09402 112.442 2.16869C112.218 2.23802 112.029 2.33669 111.874 2.46469C111.725 2.59269 111.613 2.74735 111.538 2.92869C111.464 3.10469 111.426 3.29935 111.426 3.51269C111.426 3.78469 111.501 4.01135 111.65 4.19269C111.805 4.37402 112.008 4.52869 112.258 4.65669C112.509 4.78469 112.794 4.89935 113.114 5.00069C113.434 5.10202 113.762 5.21135 114.098 5.32869C114.434 5.44069 114.762 5.57402 115.082 5.72869C115.402 5.87802 115.688 6.07002 115.938 6.30469C116.189 6.53402 116.389 6.81669 116.538 7.15269C116.693 7.48869 116.77 7.89669 116.77 8.37669C116.77 8.89935 116.68 9.39002 116.498 9.84869C116.322 10.302 116.061 10.6994 115.714 11.0407C115.373 11.3767 114.954 11.6434 114.458 11.8407C113.962 12.0327 113.394 12.1287 112.754 12.1287C112.386 12.1287 112.024 12.0914 111.666 12.0167C111.309 11.9474 110.965 11.846 110.634 11.7127C110.309 11.5794 110.002 11.4194 109.714 11.2327C109.426 11.046 109.17 10.838 108.946 10.6087L109.578 9.57669C109.632 9.50202 109.701 9.44069 109.786 9.39269C109.872 9.33935 109.962 9.31269 110.058 9.31269C110.192 9.31269 110.336 9.36869 110.49 9.48069C110.645 9.58735 110.829 9.70735 111.042 9.84069C111.256 9.97402 111.504 10.0967 111.786 10.2087C112.074 10.3154 112.418 10.3687 112.818 10.3687C113.432 10.3687 113.906 10.2247 114.242 9.93669C114.578 9.64335 114.746 9.22469 114.746 8.68069C114.746 8.37669 114.669 8.12869 114.514 7.93669C114.365 7.74469 114.165 7.58469 113.914 7.45669C113.664 7.32335 113.378 7.21135 113.058 7.12069C112.738 7.03002 112.413 6.93135 112.082 6.82469C111.752 6.71802 111.426 6.59002 111.106 6.44069C110.786 6.29135 110.501 6.09669 110.25 5.85669C110 5.61669 109.797 5.31802 109.642 4.96069C109.493 4.59802 109.418 4.15269 109.418 3.62469C109.418 3.20335 109.501 2.79269 109.666 2.39269C109.837 1.99269 110.082 1.63802 110.402 1.32869C110.722 1.01935 111.117 0.771354 111.586 0.584687C112.056 0.398021 112.594 0.304688 113.202 0.304688C113.885 0.304688 114.514 0.411354 115.09 0.624687C115.666 0.83802 116.157 1.13669 116.562 1.52069L116.026 2.53669Z" fill="black"/>
<path d="M134.727 2.20069H131.239V12.0007H129.087V2.20069H125.599V0.432687H134.727V2.20069Z" fill="black"/>
</svg>
