<svg width="135" height="13" fill="none" xmlns="http://www.w3.org/2000/svg"><path d="M12.832.433V12h-1.896V4.529c0-.299.016-.622.048-.968l-3.496 6.568c-.165.314-.419.472-.76.472h-.304c-.341 0-.595-.158-.76-.472L2.128 3.537c.016.176.03.349.04.52.01.17.016.328.016.472V12H.288V.433h1.624c.096 0 .179.002.248.008.07.005.13.018.184.04a.37.37 0 01.152.104.807.807 0 01.136.192L6.096 7.2c.09.17.173.346.248.528.08.181.157.368.232.56.075-.198.152-.387.232-.568.08-.187.165-.366.256-.536L10.48.777a.806.806 0 01.136-.192.455.455 0 01.152-.104.72.72 0 01.192-.04c.07-.006.152-.008.248-.008h1.624zm16.693 7.2l-1.408-3.848a8.359 8.359 0 01-.216-.608c-.075-.235-.15-.488-.224-.76-.07.272-.141.528-.216.768-.075.234-.147.44-.216.616l-1.4 3.832h3.68zm3.8 4.368h-1.664a.724.724 0 01-.456-.136.902.902 0 01-.264-.352l-.864-2.36h-4.792l-.864 2.36a.767.767 0 01-.248.336.692.692 0 01-.456.152h-1.68L26.589.433h2.192L33.325 12zM52.274.433V12H51.17c-.17 0-.314-.027-.432-.08a1.071 1.071 0 01-.328-.288L44.37 3.92c.032.352.048.677.048.976V12h-1.896V.433h1.128c.091 0 .168.005.232.016.07.005.128.021.176.048A.455.455 0 0144.21.6c.048.042.102.101.16.176l6.064 7.744a22.423 22.423 0 01-.04-.552 8.683 8.683 0 01-.016-.504V.433h1.896zM65.01 12h-2.16V.434h2.16V12zm12.75-9.855v3.424h4.337v1.72H77.76V12H75.6V.433h7.297v1.712H77.76zm17.063 0v3.208h4.048v1.656h-4.048v3.272h5.136V12h-7.296V.433h7.296v1.712h-5.136zm21.203.392a.76.76 0 01-.208.248.452.452 0 01-.264.072.726.726 0 01-.368-.12 7.113 7.113 0 00-.464-.28 3.606 3.606 0 00-.64-.272 2.559 2.559 0 00-.856-.128c-.299 0-.56.037-.784.112a1.637 1.637 0 00-.568.296 1.216 1.216 0 00-.336.464c-.075.176-.112.37-.112.584 0 .272.075.498.224.68.155.181.357.336.608.464s.536.242.856.344c.32.101.648.21.984.328.336.112.664.245.984.4.32.149.605.341.856.576.251.229.451.512.6.848.155.336.232.744.232 1.224 0 .522-.091 1.013-.272 1.472-.176.453-.437.85-.784 1.192-.341.336-.76.602-1.256.8-.496.192-1.064.288-1.704.288a5.3 5.3 0 01-1.088-.112 5.626 5.626 0 01-1.032-.304 5.58 5.58 0 01-.92-.48 4.458 4.458 0 01-.768-.624l.632-1.032a.632.632 0 01.208-.184.504.504 0 01.272-.08c.133 0 .277.056.432.168.155.106.339.226.552.36.213.133.461.256.744.368.288.106.632.16 1.032.16.613 0 1.088-.144 1.424-.432.336-.294.504-.712.504-1.256 0-.304-.077-.552-.232-.744a1.75 1.75 0 00-.6-.48 4.346 4.346 0 00-.856-.336c-.32-.091-.645-.19-.976-.296a8.394 8.394 0 01-.976-.384 3.167 3.167 0 01-.856-.584 2.714 2.714 0 01-.608-.896c-.149-.363-.224-.808-.224-1.336a3.2 3.2 0 01.248-1.232c.171-.4.416-.755.736-1.064a3.59 3.59 0 011.184-.744c.469-.187 1.008-.28 1.616-.28a5.38 5.38 0 011.888.32 4.26 4.26 0 011.472.896l-.536 1.016zm18.701-.337h-3.488V12h-2.152V2.2h-3.488V.434h9.128V2.2z" fill="#000"/></svg>